<svg xmlns="http://www.w3.org/2000/svg" viewBox="0 0 120 120" fill="none">
  <defs>
    <linearGradient id="teal" x1="16" y1="22" x2="54" y2="112" gradientUnits="userSpaceOnUse">
      <stop offset="0" stop-color="#3fd0e4"/><stop offset="1" stop-color="#0e7c93"/>
    </linearGradient>
    <linearGradient id="blue" x1="104" y1="22" x2="66" y2="112" gradientUnits="userSpaceOnUse">
      <stop offset="0" stop-color="#3a5cf0"/><stop offset="1" stop-color="#122466"/>
    </linearGradient>
  </defs>
  <!-- left fluke -->
  <path d="M60,114 C56,86 52,56 54,40 C55,27 41,20 15,23 C31,31 43,54 48,73 C51,88 56,101 60,114 Z" fill="url(#teal)"/>
  <!-- right fluke -->
  <path d="M60,114 C64,86 68,56 66,40 C65,27 79,20 105,23 C89,31 77,54 72,73 C69,88 64,101 60,114 Z" fill="url(#blue)"/>
  <!-- gloss -->
  <path d="M51,40 C45,35 37,37 25,30 C38,38 45,52 49,66 C50,57 50,48 51,40 Z" fill="#ffffff" opacity=".28"/>
  <path d="M69,40 C75,35 83,37 95,30 C82,38 75,52 71,66 C70,57 70,48 69,40 Z" fill="#ffffff" opacity=".15"/>
</svg>
